<?xml version="1.0" encoding="utf-8"?>
<!-- Generator: Adobe Illustrator 15.1.0, SVG Export Plug-In  -->
<!DOCTYPE svg PUBLIC "-//W3C//DTD SVG 1.1//EN" "http://www.w3.org/Graphics/SVG/1.1/DTD/svg11.dtd" [
	<!ENTITY ns_flows "http://ns.adobe.com/Flows/1.0/">
]>
<svg version="1.1"
	 xmlns="http://www.w3.org/2000/svg" xmlns:xlink="http://www.w3.org/1999/xlink" xmlns:a="http://ns.adobe.com/AdobeSVGViewerExtensions/3.0/"
	 x="0px" y="0px" width="398px" height="396px" viewBox="0 0 398 396" overflow="visible" enable-background="new 0 0 398 396"
	 xml:space="preserve">
<defs>
</defs>
<path fill-rule="evenodd" clip-rule="evenodd" fill="#555555" d="M327.943,186.676c0.938-0.344,2.515-0.051,3.697-0.148
	c1.233,0,2.466,0,3.698,0C333.168,186.872,330.36,186.577,327.943,186.676z"/>
<path fill-rule="evenodd" clip-rule="evenodd" fill="#555555" d="M189.71,395.737c-62.733-3.727-115.184-36.541-140.72-66.332
	C22.671,298.705,2.592,260.307,0.181,205.46c-0.472-10.727-0.038-21.66,1.508-32.285c1.384-9.516,3.538-18.944,6.205-28.179
	c0.871-3.015,1.927-5.971,2.917-8.946c0.673-2.025,1.289-4.289,2.113-6.345c0.961-2.397,1.852-4.822,2.824-7.216
	c0.883-2.173,2.162-4.157,3.195-6.259c1.147-2.333,2.159-4.731,3.364-7.036c1.69-3.23,3.417-6.438,5.229-9.603
	c3.525-6.161,7.334-12.175,11.469-17.945c2.178-3.04,4.466-6.005,6.88-8.86c0.695-0.786,2.422-2.605,2.958-3.549
	c-1.766,1.511,2.237-2.062,2.071-2.367c-0.1,0.344-0.492,0.396-0.592,0.739c0.831-1.615,2.5-2.585,3.402-3.698
	c-1.539,1.243,0.066-0.351,0.592-0.887c7.577-7.73,15.459-15.301,24.7-22.334C107.96,18.663,145.248,2.21,193.792,0.164
	c26.135-1.101,49.017,3.459,69.221,10.206c7.299,2.438,14.46,5.312,21.418,8.6c6.545,3.091,12.863,6.541,18.986,10.396
	c1.519,0.956,3.029,1.922,4.527,2.911c0.839,0.552,1.621,1.089,2.48,1.611c0.617,0.374,1.421,1.022,1.973,1.479
	c0.794,0.658,1.505,0.945,2.329,1.565c0.968,0.729,1.836,1.582,2.798,2.32c2.04,1.567,4.057,3.169,6.13,4.693
	c12.833,10.448,24.877,23.014,35.053,36.533c3.512,4.665,6.068,8.824,8.729,12.425c14.723,23.831,28.223,55.738,30.023,95.4
	c1.578,34.712-5.332,64.292-15.973,88.448c-8.764,19.893-19.615,37.274-32.836,52.211c-36.486,41.224-87.48,66.775-153.939,66.775
	 M374.978,167.596c-0.424-2.056-0.828-3.965-1.332-6.212c-0.477-2.131-0.27-4.552-1.035-6.656c-0.352-0.24-0.596-0.588-0.887-0.888
	c-1.682-7.104-4.059-14.126-6.508-20.411c-0.271-0.691-1.363-2.468-1.48-3.401c-0.049-0.398,0.336-0.962,0.297-1.331
	c-0.16-1.493-1.023-2.369-2.219-3.255c-3.873-8.304-7.965-16.39-13.016-23.517c0.16-1.839-1.031-2.322-1.48-3.55
	c-1.371-0.463-1.652-1.449-2.365-2.515c-2.099-3.137-4.54-5.983-6.804-8.874c-2.643-3.374-5.333-6.606-8.431-9.467
	c0.241-1.586-1.4-2.532-2.219-3.549c-0.354-0.089-0.675-0.213-1.183-0.148c-6.209-6.365-13.188-12.577-20.264-17.601
	c-0.487-1.486-1.85-2.095-2.958-2.958c-0.444,0-0.888,0-1.332,0c-1.086-1.35-2.742-2.002-4.142-2.958
	c-4.287-2.931-8.587-5.821-13.459-7.987c-1.194-1.171-2.896-1.836-4.585-2.515c-0.561-1.361-2.397-1.448-3.254-2.514
	c-0.505,0.038-0.711,0.374-1.331,0.296c-5.791-2.892-12.387-5.528-19.672-7.691c0.002-0.195,0.259-0.135,0.296-0.295
	c-3.981-0.652-6.402-2.046-9.91-3.254c-0.492,0.05-0.656,0.429-1.331,0.296c-5.639-1.93-11.263-2.548-17.01-3.55
	c-3.355-0.585-9.015-1.354-12.572-2.071c-0.467,0.075-0.648,0.436-1.183,0.444c-7.663-0.921-15.402-0.779-22.778-0.444
	c-1.635,0.075-3.232,0.504-4.732,0.444c-1.003-0.04-1.697-0.354-2.515-0.296c-1.248,0.089-3.315,0.776-4.437,0.888
	c-7.748,0.768-16.301,2.046-23.074,3.993c-0.931,0.268-1.418,0.222-2.515,0.296c-1.325,0.09-2.426,1-3.697,1.479
	c-2.089,0.786-4.384,1.337-6.656,2.07c-6.13,1.978-13.296,4.832-18.783,7.543c-0.325,0.327-0.605-0.146-1.184,0
	c-4.102,2.708-8.431,4.517-12.72,7.1c-2.208,1.807-5.266,3.155-7.692,4.733c-2.03,1.32-4.111,2.433-5.768,3.846
	c-0.345,0-0.69,0-1.035,0c-0.992,1.029-2.267,1.776-3.106,2.958c-7.617,5.646-14.833,11.692-21.151,18.637
	c-0.364-0.02-0.712-0.022-0.887,0.147c-6.367,7.783-13.45,14.85-18.784,23.665c-0.559-0.065-0.695,0.292-1.036,0.444
	c-1.167,2.185-2.23,4.04-3.402,5.916c-2.914,4.668-5.487,9.457-7.838,14.051c-1.607,3.14-3.302,6.238-4.711,9.475
	c-1.327,3.049-2.376,6.208-3.542,9.319c-1.451,3.871-2.843,7.771-3.977,11.749c-0.329,1.152-0.638,2.31-0.922,3.474
	c-0.193,0.79-0.148,1.624-0.422,2.396c-0.306,0.864-0.965,1.546-1.234,2.43c-0.503,1.655-0.233,3.513-0.617,5.221
	c-0.413,1.833-1.006,3.623-1.289,5.485c-0.426,2.8-0.945,5.724-1.332,8.579c-0.522,3.855-0.381,7.552-0.887,11.241
	c-0.167,1.212-0.64,2.153-0.592,3.254c0.215,4.866-0.09,10.114,0.148,15.233c0.2,4.311,0.369,8.509,1.184,12.277
	c-1.098,1.389-0.32,2.688,0.177,4.116c0.722,2.073,0.599,4.515,1.006,6.681c1.356,7.222,3.032,14.761,5.177,20.855
	c-0.34,1.4,0.438,3.381,1.331,4.438c1.892,6.276,4.385,12.882,7.1,18.636c0.908,1.925,1.714,3.896,2.663,5.177
	c-0.087,0.358-0.111,0.632-0.148,1.331c0.251,1.347,1.442,2.096,2.219,3.105c1.243,1.615,2.106,3.889,3.254,5.77
	c3.591,5.882,6.992,11.812,11.241,16.861c0,0.346,0,0.691,0,1.035c0.835,0.99,1.446,2.203,2.81,2.662
	c5.103,7.076,11.087,13.27,17.305,19.229c0.002,0.393-0.056,0.844,0.147,1.035c0.651,1.32,2.753,1.542,3.698,2.367
	c6.533,5.693,13.261,11.645,21.003,16.123c0.077,0.465,0.26,0.824,0.443,1.182c0.982,0.949,2.314,0.949,3.55,1.48
	c1.694,0.727,3.335,2.217,5.177,3.254c3.695,2.08,7.4,4.064,11.241,5.916c0.926,0.447,2.007,0.883,2.958,1.332
	c0.945,0.445,2.125,0.699,2.811,1.182c1.089,0.77,1.493,1.768,2.958,2.072c0.502,0.104,1.127-0.074,1.627,0
	c0.916,0.135,1.909,0.791,2.958,1.184c6.983,2.609,14.164,4.986,21.891,6.506c1.072,1.891,3.101,1.219,5.028,1.332
	c2.687,0.16,5.525,1.318,8.431,1.775c5.312,0.834,10.483,1.275,15.827,1.627c1.472,1.912,3.733,0.555,5.177,0.295
	c0.666-0.119,1.707,0.111,2.662,0.148c6.387,0.254,14.127,0.037,20.706-0.74c1.574-0.186,2.741,0.193,3.697,0.297
	c1.892,0.201,2.104-0.707,3.995-1.184c1.464-0.369,3.363-0.336,5.028-0.592c6.993-1.076,13.085-2.498,18.932-4.143
	c1.191,0.793,2.721,0.188,3.994-0.146c0.336-0.404,0.588-0.891,0.888-1.332c0.951-0.377,2.782-0.389,3.697-1.035
	c-0.085,0.061-0.415-0.059-0.148-0.148c6.739-2.248,13.697-4.43,19.377-7.395c2.177,0.059,3.523-0.715,4.288-2.07
	c7.738-3.652,15.08-7.697,21.596-12.572c1.831,0.404,3.688-0.816,3.993-2.812c7.101-5.025,13.684-10.572,19.672-16.712
	c1.909-0.357,3.372-1.162,3.4-3.402c5.298-5.133,9.873-10.715,14.2-16.418c0.62-0.816,1.325-2.016,1.923-2.514
	c0.475-0.395,1.366-0.406,1.923-0.887c0.672-0.582,0.643-1.412,1.33-1.924c0.104-0.645-0.252-0.832-0.148-1.479
	c4.699-6.896,9.279-14.376,13.164-22.481c1.391-0.56,2.691-2.528,1.924-4.29c3.711-7.134,6.617-15.074,9.021-23.518
	c2.096-0.334,2.371-3.425,1.332-4.881c2.424-7.994,4.018-16.232,5.027-25.439c2.184-1.229,0.74-4.004,0.592-5.473
	c-0.072-0.731,0.207-1.429,0.297-2.219c0.504-4.476,0.473-10.399,0.592-14.938c0.078-3.004-0.266-5.263-0.445-7.248
	c0.377-0.524,0.799-1.086,0.889-1.774c0.195-1.495-0.77-2.403-1.184-3.846c-0.721-2.517,0.09-5.761-0.887-8.135
	c0.072-0.264,0.156,0.063,0.295,0.147C375.468,173.559,375.593,170.573,374.978,167.596z"/>
<path fill-rule="evenodd" clip-rule="evenodd" fill="#555555" d="M216.57,25.161c0,0.049,0,0.099,0,0.148
	c0.015,0.791-1.125,2.958-1.184,1.775c-0.225,0.367-0.286,0.898-0.296,1.479c0.144-0.004,0.114-0.181,0.147-0.296
	c0.628-0.666-0.625,1.268-0.147,0.888c0.63-0.521-0.765,0.811-0.148,1.183c0.246-2.214-0.021,2.136-0.148,0.296
	c0.028,0.944-0.339,3.318-0.591,4.881c-0.398-0.175,0.001-0.771,0-1.035c-0.726,0.2,0.162,1.921-0.296,1.775
	c0-0.148,0-0.296,0-0.444c-0.167-0.205-0.301,0.874-0.296,1.331c0.589-1.822,0.037,2.018,0,0.296
	c-0.221,0.321-0.252,0.833-0.296,1.331c0.145-0.004,0.115-0.181,0.148-0.295c-0.062-0.534,0.271-0.203,0.147,0.147
	c-1.18,6.955-2.443,13.826-3.55,20.855c0,0.049,0,0.099,0,0.148c-0.517,2.097-0.832,4.394-1.184,6.656
	c-0.203,0.191-0.146,0.643-0.147,1.036c-0.9,4.326-1.647,8.804-2.367,13.312c0,0.049,0,0.099,0,0.147
	c-0.598,2.656-1.064,5.443-1.479,8.283c0,0.049,0,0.099,0,0.148c-0.287,0.648-0.368,1.504-0.444,2.366
	c-0.181,0.558-0.297,1.181-0.295,1.923c-0.293,0.594-0.327,1.447-0.444,2.218c0,0.1,0,0.198,0,0.296
	c-0.371,1.207-0.578,2.578-0.739,3.994c0,0.049,0,0.099,0,0.147c-0.473,1.746-0.728,3.71-1.035,5.621
	c-0.048,0.347-0.233,0.555-0.147,1.035c-0.636,2.964-1.155,6.043-1.628,9.17c0,0.05,0,0.099,0,0.148
	c-0.48,1.737-0.758,3.68-1.035,5.62c0,0.05,0,0.099,0,0.147c-0.049,0-0.099,0-0.147,0c0.115,0.658-0.197,0.888-0.147,1.479
	c0,0.05,0,0.099,0,0.148c-0.48,2.208-0.904,4.502-1.332,6.951c-0.386,2.211-1.288,4.852-1.035,7.1
	c0.172,1.521,1.409,3.643,2.219,5.62c1.896,4.635,3.689,9.541,5.62,14.495c2.395,6.145,5.321,13.779,7.987,19.819
	c0.786,1.783,1.247,3.537,1.923,5.177c0.438,1.064,1.348,2.2,1.184,2.959c3.02,2.304,5.935,4.995,7.986,8.282
	c0.436,0.697,0.368,1.895,1.479,2.071c-0.547,1.622-1.067,3.271-1.627,4.88c1.15-1.665,1.582-3.79,2.219-5.768
	c3.216-10.002,6.455-20.049,9.614-29.729c1.257-3.854,2.499-7.596,2.958-9.762c0.021-0.614,0.097-0.03,0.296,0
	c-0.267-1.731,0.965-3.15,1.183-4.881c-4.822,3.411-9.769,7.979-14.495,11.98c-0.887,5.529-2.075,12.021-2.958,18.044
	c2.918-0.286,5.575-0.834,8.282-1.331c-0.402,0.226-0.109,0.559-0.442,1.036c-1.175,0.415-3.785,0.509-5.325,1.035
	c-0.049,0-0.099,0-0.148,0c-0.958-0.021-1.522,0.351-2.515,0.296c-0.124,0.171-0.194,0.396-0.146,0.739c0,0.049,0,0.099,0,0.147
	c-0.288,0.995-0.377,2.188-0.593,3.254c1.929,0.438,4.878-0.144,6.805,0.296c0.003,0.349-0.256,0.436-0.148,0.888
	c-1.176,0.104-4.534-0.073-6.656,0c-0.51,0.426-0.252,1.621-0.591,2.219c-1.008-0.137-0.941-1.224-0.593-2.07
	c-1.12-0.114-2.971-0.28-2.81-1.184c0.937,0,1.874,0,2.81,0c0.442-1.087,0.593-2.466,0.74-3.846
	c-0.823-0.23-2.193,0.241-3.401,0.443c-1.041,0.175-2.699,0.832-2.811-0.295c0.243-0.502,1.957-0.57,2.958-0.74
	c1.178-0.2,2.397-0.449,3.401-0.592c0.56-2.151,0.88-4.544,1.184-6.951c0-0.05,0-0.099,0-0.148c0.664-3.182,1.23-6.46,1.627-9.909
	c-4.192,2.661-8.428,7.349-12.572,10.058c-0.596-1.532,1.646-2.387,2.662-3.254c3.306-2.822,7.011-6.071,10.354-8.875
	c0.584-3.874,1.518-8.623,2.071-13.016c0-0.049,0-0.099,0-0.147c0.298-0.688,0.299-1.673,0.443-2.515
	c-6.156,6.219-12.238,14.582-18.34,20.854c-0.478-0.822,0.12-0.799,0.591-1.331c1.134-1.277,2.241-3.225,3.551-4.141
	c4.585-5.873,10.113-11.573,14.347-17.306c1.326-0.941,2.121-2.415,3.254-3.55c-0.358,0.233-0.654,0.529-0.888,0.888
	c0.271-1.013,1.916-1.929,2.662-2.958c-0.358,0.233-0.654,0.528-0.887,0.887c0.242-0.843,1.618-1.831,2.365-2.662
	c-0.212,0.083-0.359,0.23-0.442,0.443c0.095-0.646,1.155-1.603,1.922-2.07c-0.064-0.374-0.653,0.535-0.296-0.147
	c5.396-6.257,10.999-12.587,16.714-19.82c0.552-0.393,0.01,0.285,0.296,0.296c0.219-1.613,0.724-2.326,0.888-3.105
	c-0.145-0.205,0.21-0.715,0.444-0.74c-0.116-1.511,1.111-2.998,1.182-4.437c0.024-0.486,0.395-1.761,1.036-2.367
	c-0.139-1.174,0.519-2.309,0.888-3.401c5.841-17.302,11.746-35.99,17.896-53.986c0.441-1.291,1.247-2.695,1.331-3.698
	c0.038-0.459-0.216-1.003-0.147-1.479c0.215-1.502,1.758-2.741,0.887-4.438c1.268,0.064,2.037,0.626,2.812,1.184
	c-1.038,1.526-1.051,4.078-2.663,5.029c-0.72,2.682-1.689,5.114-2.514,7.691c0.018,0.266-0.182,0.312-0.148,0.592
	c-1.238,3.248-2.286,6.687-3.402,10.058c0,0.05,0,0.099,0,0.148c-0.306,0.435-0.412,1.067-0.591,1.627c0,0.049,0,0.098,0,0.147
	c-0.354,0.583-0.512,1.362-0.74,2.071c-0.115,0.131-0.158,0.334-0.148,0.592c-0.259,0.283-0.312,0.771-0.443,1.183
	c0,0.049,0,0.099,0,0.148c-0.795,1.917-1.398,4.024-2.07,6.064c0,0.05,0,0.099,0,0.148c-0.401,0.731-0.609,1.657-0.888,2.514
	c0,0.05,0,0.099,0,0.148c-0.894,2.212-1.596,4.616-2.366,6.951c-0.413,1.215-0.895,2.36-1.184,3.698
	c-0.29,0.696-0.582,1.389-0.739,2.219c0,0.049,0,0.099,0,0.147c-0.446,0.639-0.534,1.635-0.888,2.366
	c-0.195,0.691-0.493,1.281-0.592,2.071c-0.855,2.053-1.489,4.328-2.219,6.508c0,0.049,0,0.099,0,0.147
	c-1.398,3.63-2.508,7.55-3.846,11.241c1.391-0.581,2.042-2.042,2.958-3.105c14.308-16.6,28.944-33.873,43.337-50.585
	c0.602-2.161,2.665-2.857,2.959-5.324c1.359,0.268,2.331,0.923,2.811,2.07c-0.577,0.197-0.768-0.076-1.184,0.148
	c-1.078,0.844-1.863,1.982-2.662,3.106c-0.248,0.196-0.496,0.392-1.035,0.296c-14.877,17.622-30.057,35.507-45.408,53.247
	c-0.999,1.154-2.421,2.521-2.958,3.55c-1.095,2.101-1.748,5.408-2.515,7.69c-2.522,7.515-4.966,15.054-7.543,22.778
	c3.652-2.39,6.883-5.458,10.205-8.283c23.432-19.924,47.697-39.681,71.291-59.606c0.408-2.156,2.8-2.328,3.402-4.289
	c1.275,0.253,1.767,1.289,2.367,2.219c-1.626,0.174-2.783,1.632-3.993,2.662c-0.584,0.115-0.453,0.115-1.036,0
	c-25.46,21.827-52.229,43.298-77.947,65.522c-2.271,1.964-5.024,3.123-5.621,5.917c-0.131,0.361-0.345,0.641-0.295,1.183
	c-0.591,1.136-0.922,2.529-1.331,3.846c0,0.05,0,0.099,0,0.148c-0.991,2.56-1.851,5.249-2.663,7.986c0,0.05,0,0.099,0,0.148
	c-0.389,0.794-0.684,1.683-0.888,2.662c-0.124,0.517-0.494,0.788-0.442,1.479c-1.302,3.53-2.521,7.144-3.551,10.945
	c6.577-0.93,13.661-2.042,20.56-3.254c2.27-0.398,4.866-0.47,6.804-1.183c1.412-0.521,3.603-2.971,5.325-4.438
	c24.537-20.893,48.598-41.436,73.065-62.269c1.773-1.51,3.897-2.958,5.177-4.438c0.332-0.384,0.643-1.196,0.888-1.479
	c0.812-0.94,2.08-1.437,2.809-2.366c0.248-0.245,0.119-0.868,0.148-1.331c1.104,0.524,1.744,1.511,2.07,2.81
	c-2.293,0.318-2.902,2.324-5.027,2.811c-27.199,23.435-54.781,46.487-81.793,70.108c8.891-1.22,17.12-2.799,25.884-4.289
	c2.836-0.482,6.047-0.493,8.727-1.332c1.197-0.374,2.626-1.526,3.994-2.366c14.481-8.889,28.658-17.796,43.04-26.623
	c5.205-3.194,10.387-6.531,15.826-9.466c0.131-0.689-0.488,0.1-0.443-0.296c0.729-1.558,3.609-1.351,3.4-3.402
	c1.145,0.386,1.631,1.427,1.629,2.958c-1.932,0.162-2.732,2.168-4.734,1.775c-19.694,12.253-39.717,24.176-59.162,36.681
	c2.23-0.234,4.396-0.535,6.36-1.035c0.049,0,0.099,0,0.147,0c14.306-2.443,30.116-4.633,44.965-7.247
	c5.066-0.893,10.178-1.396,14.789-2.515c1.76-0.427,4.541-1.222,6.064-2.219c0.523,0.763,1.092,2.09,0.74,3.254
	c-1.193-1.162-3.064-0.068-4.734,0c-0.457,0.019-0.84-0.282-1.33-0.296c-1.598-0.044-3.781,0.711-5.77,1.035
	c-5.34,0.872-11.865,2-17.008,2.959c-0.051,0-0.1,0-0.148,0c-12.654,1.988-25.266,4.019-37.716,6.212c-0.05,0-0.099,0-0.148,0
	c-2.993,0.795-5.908,0.388-8.874,1.331c-2.088,0.664-4.862,3.087-6.805,4.289c-6.853,4.243-13.78,8.095-20.263,12.572
	c16.862,0.218,32.14,0.247,48.958,0.296c-0.034,0.213-0.442,0.052-0.444,0.296c1.446-0.082,2.146,0.012,2.81-0.296
	c0.393,0.343,3.689,0.048,5.621,0.147c0.196,0.303-1.394,0.08-1.923,0.148c15.589,0.264,32.769,0.404,47.478,0.296
	c0.477-0.206-0.717-0.064-0.148-0.444c1.211-0.642,4.016-0.384,5.029-0.739c0.281,0.78,0.465,2.193,0.148,3.105
	c-0.607,0.464-0.754-0.557-1.184-0.739c-1.398,0.312-3.58,0.267-4.436-0.443c-24.18,0.119-49.788-0.443-74.398-0.443
	c-8.463,0-16.797,0.286-24.849,0c-1.36-0.049-2.912-0.393-4.288-0.148c-1.062,0.188-2.521,1.349-3.698,2.07
	c-8.232,5.046-16.815,10.546-24.849,15.383c7.289,5.037,15.584,9.067,23.073,13.903c11.356-0.556,23.812,0.093,36.534-0.443
	c13.652-0.575,27.463-0.127,40.97-0.74c7.642-0.347,15.366,0.078,23.222-0.148c2.502-0.071,5.156,0.223,7.246-0.146
	c0.426-0.075,0.787-0.39,1.184-0.444c1.086-0.149,2.121,0.203,3.105,0c0.896-0.185,0.93-0.696,1.627-0.739
	c0.395,1.149,0.322,2.208-0.295,3.254c-1.289-0.881-4.35,0.011-5.473-1.035c-29.3,0.231-58.35,0.714-87.413,1.183
	c-0.147,0-0.296,0-0.443,0c-6.126-0.11-11.852,0.179-17.896,0.147c0.655,1.499,2.117,1.171,3.253,2.516
	c7.941,4.263,16.448,9.958,24.997,14.494c-0.646,0.248-1.924-0.145-2.662-0.296c-9.251-5.309-18.415-11.65-28.103-16.714
	c-0.44-0.229-1.713,0.119-2.367,0.148c-3.528,0.161-7.329-0.225-11.093,0.148c1.633,2.377,4.217,4.021,6.509,6.063
	c1.18,1.053,2.495,2.013,3.845,3.106c1.262,1.021,2.393,2.509,3.697,3.254c0.454,0.259,1.424,0.037,0.889,0.444
	c1.239-0.19,1.745,0.526,3.401,0.146c-0.083,0.139-0.411,0.225-0.148,0.297c31.815,4.656,65.917,9.489,98.357,14.494
	c0.625-0.016-0.188-0.746,0.592-0.739c0.84-0.33,2.188,0.556,3.256,0.443c0.797-0.083,0.889-0.642,1.479-0.591
	c0.369,1.042-0.117,2.423-0.592,3.105c-1.365-0.311-2.475-0.877-4.143-0.887c-0.258-0.282-0.537-0.546-0.887-0.739
	c-22.97-3.506-46.821-6.916-69.516-10.207c18.978,11.709,39.45,23.325,59.311,35.202c1.234-0.058,2.781,0.604,3.697,1.332
	c0.619,0.297,1.148-0.133,1.627,0.147c-0.102,1.426-0.57,2.486-1.627,2.958c-0.193-1.964-2.391-2.046-3.697-3.105
	c-0.223-0.181-0.236-0.687-0.443-0.888c-0.566-0.547-1.822-0.899-2.811-1.479c-12.947-7.593-27.287-16.239-39.936-23.517
	c-0.049,0-0.098,0-0.147,0c-4.192-2.702-9.159-5.548-13.755-8.283c-1.407-0.837-3.507-2.553-4.882-2.81
	c-8.91-1.667-18.548-2.331-28.102-3.994c21.88,19.481,44.67,38.874,67.002,58.275c2.689,2.338,5.392,4.962,8.431,7.101
	c0.117,0.08,0.911,0.252,0.591,0.738c1.289-0.406,2.653,1.896,3.993,1.922c-0.105,1.324-0.865,1.994-1.775,2.516
	c-0.729-0.109-0.207-0.801-0.442-1.184c-0.943-0.635-1.704-1.451-2.662-2.07c-0.047-0.348-0.234-0.555-0.148-1.035
	c-26.026-21.995-51.503-44.54-77.355-66.707c-11.407-1.559-22.739-3.194-34.019-4.881c2.691,8.995,6.739,18.699,9.762,27.362
	c12.08,9.743,24.817,20.169,36.089,29.286c13.04,10.621,26.473,21.115,40.527,32.687c1.974,1.625,3.905,3.379,6.212,4.586
	c-0.146,0.836,0.532,0.85,0.888,1.184c-0.044-0.303-0.4-0.291-0.443-0.592c0.019-0.607,1.585,1.088,1.626,1.479
	c0.669,0.066,1.357,0.424,2.367,0.148c-0.063,1.367-1.416,2.23-2.219,2.365c-0.76-1.705-2.808-2.123-3.402-3.992
	c-26.932-21.877-53.929-43.689-80.904-65.524c0.529,2.33,1.379,4.341,2.218,6.36c0,0.049,0,0.099,0,0.148
	c0.907,2.594,1.772,5.229,2.811,7.69c0,0.049,0,0.1,0,0.148c0.749,2.325,1.677,4.616,2.515,6.951
	c0.808,2.251,1.308,4.809,2.366,6.952c0.559,1.129,2.031,2.299,3.106,3.549c15.114,17.562,30.877,34.933,45.703,52.505
	c0.416,0.178,0.851,0.334,1.332,0.445c0.45,0.93,1.388,1.373,1.774,2.367c0.538,0.324,0.992-0.135,1.479,0.295
	c-0.236,1.193-1.436,1.424-2.366,1.926c-0.815-1.604-2.361-2.475-2.811-4.439c-15.558-17.82-30.949-35.804-46.886-53.246
	c1.794,4.861,3.375,9.936,5.324,14.643c0,0.049,0,0.1,0,0.148c0.814,2.537,1.665,5.039,2.662,7.395c0,0.049,0,0.098,0,0.148
	c3.432,9.633,6.744,19.386,10.354,28.839c0,0.051,0,0.1,0,0.148c1.762,5.141,3.565,10.24,5.473,15.236
	c1.298,0.559,1.348,3.426,2.662,4.438c-0.783,0.596-1.58,1.182-2.958,1.184c-0.446-0.521,0.409-0.686,0.296-1.332
	c-0.463-0.918-0.621-2.139-1.184-2.957c0.344-1.986-0.752-3.754-1.479-5.77c-1.576-4.371-3.048-8.934-4.732-13.016
	c0-0.049,0-0.1,0-0.148c-5.116-14.681-10.701-29.914-15.975-44.815c-0.745-2.107-1.281-4.522-2.219-6.36
	c-0.851-1.671-2.754-3.151-4.141-4.732c-4.077-4.648-8.042-9.63-12.276-13.904c0.105,0.537,0.057,1.227,0.296,1.628
	c0.002,0.393-0.056,0.845,0.148,1.035c0.526,3.713,1.057,7.423,1.774,10.944c0,0.051,0,0.1,0,0.148
	c0.373,2.782,0.749,5.562,1.331,8.135c0,0.099,0,0.197,0,0.296c0.101,0.886,0.129,1.844,0.443,2.515c0,0.05,0,0.099,0,0.147
	c0.206,1.916,0.462,3.781,0.889,5.472c0,0.049,0,0.1,0,0.148c0.034,0.605,0.072,1.209,0.295,1.627c0,0.051,0,0.1,0,0.148
	c0.215,1.906,0.469,3.771,0.887,5.473c0,0.049,0,0.1,0,0.148c0.165,1.609,0.397,3.152,0.74,4.584c0,0.051,0,0.1,0,0.148
	c0.399,2.756,0.764,5.547,1.331,8.135c0,0.049,0,0.098,0,0.148c0.265,2.199,0.563,4.367,1.035,6.359c0,0.049,0,0.1,0,0.148
	c0.162,1.613,0.385,3.166,0.74,4.586c0,0.049,0,0.098,0,0.146c0.844,6.007,1.748,11.955,2.81,17.75c0,0.049,0,0.1,0,0.148
	c0.7,4.92,1.411,9.83,2.367,14.494c0,0.049,0,0.1,0,0.148c0.314,3.037,1.375,5.33,2.219,7.838c-0.448,0.885-1.728,0.936-3.106,0.889
	c-0.223-0.814,0.693-0.49,0.592-1.184c-0.251-3.6-0.502-6.348-1.184-10.502c-4.765-29.018-9.121-58.068-13.902-87.266
	c-0.345-2.104-0.464-4.638-1.036-6.063c-0.457-1.139-2.105-2.398-3.105-3.551c-7.127-8.202-14.202-16.347-21.3-24.256
	c-2.407,5.973-4.391,12.371-6.508,18.636c0,0.05,0,0.099,0,0.148c-0.85,1.51-1.183,3.24-1.774,5.028
	c-0.534,1.615-1.617,3.35-1.774,4.881c-0.243,2.366,1.268,6.949,1.774,9.467c4.273,21.248,9.188,43.902,13.459,64.485
	c0,0.049,0,0.1,0,0.148c1.432,7.213,2.916,14.764,4.438,22.188c0.498,2.426,0.716,5.166,1.479,7.248
	c0.19,0.516,0.375,0.809,0.889,1.184c0.188,1.783,0.225,3.719,1.627,4.289c-0.4,0.955-2.19,0.969-3.106,0.592
	c0.105-6.555-1.905-13.555-3.254-19.967c0-0.051,0-0.1,0-0.148c-0.863-4.609-1.729-9.217-2.811-13.609c0-0.049,0-0.1,0-0.148
	c-0.992-5.318-2.047-10.572-3.254-15.677c0-0.049,0-0.098,0-0.148c-0.714-3.82-1.448-7.621-2.366-11.24c0-0.049,0-0.098,0-0.148
	c-2.626-13.102-5.329-26.125-8.135-39.046c0-0.05,0-0.1,0-0.148c-0.084-0.706-0.155-1.423-0.443-1.923c0-0.049,0-0.099,0-0.147
	c-0.159-1.666-0.65-2.998-0.889-4.585c-1.168,1.747-1.758,4.158-2.514,6.359c-1.485,4.325-2.959,8.487-4.585,13.164
	c-1.135,3.263-2.398,5.063-2.219,9.022c0.526,11.598,0.048,24.012,0.739,36.089c0,0.1,0,0.197,0,0.295
	c0.055,9.066,0.294,17.949,0.592,26.773c0,0.148,0,0.295,0,0.443c0.331,3.352-0.419,7,0.148,10.205
	c0.067,0.385,0.389,0.787,0.443,1.184c0.239,1.738-0.392,3.541,0.888,4.289c-0.837,0.461-2.404,0.35-3.106-0.146
	c1.233-6.115,0.662-14.047,0.443-21.152c0-0.098,0-0.197,0-0.295c0.001-4.34-0.054-8.623-0.295-12.723c0-0.295,0-0.592,0-0.887
	c-0.183-15.15-0.645-30.021-0.889-45.111c-0.339,0.303-0.053,1.229-0.146,1.775c-8.376,22.686-16.209,45.91-24.405,68.777
	c0.258,2.008-1.257,3.674-0.888,5.768c-0.984,0.266-2.438-0.201-3.105-0.738c0.165-0.453,1.104-0.869,1.331-1.184
	c0.432-0.596,0.467-1.746,0.887-2.662c0.266-0.578,0.828-1.025,1.036-1.479c1.281-2.799,2.012-6.08,3.105-9.172
	c6.792-19.197,13.485-38.839,20.56-58.423c0.777-2.15,1.784-3.555,1.479-5.768c0-0.247,0-0.494,0-0.74
	c0-4.305-0.042-7.653-0.297-11.685c0-0.148,0-0.297,0-0.444c0.095-3.102-0.125-5.889-0.147-8.874
	c-4.667,7.037-8.97,14.336-13.312,21.594c-12.999,21.727-26.183,43.537-39.195,65.377c0.043,2.078-1.619,3.461-1.923,5.176
	c-1.075-0.256-2.156-0.506-2.663-1.332c0.16-0.703,0.703-0.154,1.184-0.59c0.261-1.072,1.071-1.592,1.331-2.664
	c0.392-0.348,0.893-0.586,1.331-0.887c16.605-28.027,32.952-55.556,49.993-83.716c1.012-1.671,3.009-4.175,3.254-5.62
	c0.095-0.56-0.118-1.196-0.148-1.775c-0.204-4.024,0.086-8.924-0.296-12.572c0-0.197,0-0.395,0-0.592
	c-0.056-2.359,0.138-4.969-0.147-7.099c0-0.05,0-0.1,0-0.148c-0.001-5.027-0.117-9.94-0.296-14.791
	c-8.168,4.56-16.015,9.36-24.257,14.347c-1.149,0.696-2.701,1.338-3.401,2.071c-1.09,1.141-2.218,4.002-3.254,5.917
	c-16.008,29.562-31.766,60.895-47.774,89.777c-0.204,0.467,0.366,0.893,0,1.035c-0.542,1.564-2.203,3.066-1.479,4.588
	c-1.246-0.184-2.18-0.68-2.662-1.627c0.892-0.748,1.452-1.889,2.219-2.961c2.635-3.676,5.189-8.803,7.543-13.162
	c10.202-18.896,21.518-40.645,29.878-56.057c1.648-3.038,3.226-6.007,4.881-9.17c1.965-3.757,3.689-7.526,5.473-10.205
	c-0.011,0.016-0.156-0.303,0-0.444c0.594-0.541,0.099,0.043,0.147-0.296c0.046-0.32,0.444-0.647,0.74-1.184
	c0.342-0.622,1.452-2.949,2.365-4.881c-6.024,3.144-11.51,6.739-17.305,10.205c-1.906,1.142-4.19,1.936-5.768,3.255
	c-1.089,0.908-2,2.623-3.106,3.993c-15.599,19.311-32.005,39.303-47.479,58.424c-0.289,1.682-1.492,2.451-2.366,3.549
	c-0.157,0.802,0.449,0.929,0.147,1.478c-1.092-0.385-1.935-1.023-2.366-2.07c0.167-0.572,0.968-0.512,1.331-0.887
	c8.788-9.854,17.08-20.559,25.588-31.061c8.48-10.469,16.996-20.999,25.293-31.505c-15.619,9.132-31.211,18.289-46.591,27.66
	c-0.05,0-0.1,0-0.148,0c-3.157,1.837-6.424,3.791-9.762,5.767c-3.213,1.902-6.837,3.621-9.614,5.768
	c-0.459,0.355-0.75,0.852-1.183,1.184c-0.685,0.527-1.577,0.756-2.219,1.332c-0.442,0.396-0.675,1.02-1.183,1.332
	c-0.854-0.627-1.441-1.518-1.775-2.664c2.507,0.781,2.909-1.371,5.177-1.773c0.519-0.131,0.154,0.383,0,0.443
	c20.812-12.641,42.116-25.171,64.784-38.751c1.445-0.866,3.188-1.568,4.437-2.516c1.357-1.028,2.451-3.076,3.698-4.584
	c3.661-4.43,7.515-9.036,10.945-13.607c-2.577,0.579-4.801,1.51-7.101,2.366c-0.049,0-0.098,0-0.147,0
	c-7.933,2.767-16.018,5.379-23.812,8.283c-0.05,0-0.099,0-0.148,0c-19.527,6.629-39.957,13.722-59.903,20.707
	c-4.921,1.724-9.104,3.037-13.163,5.472c-1.046-0.383-1.146-1.713-1.479-2.81c0.805,0.029,0.924,0.685,1.774,0.296
	c0.162,0.654-0.25,0.735-0.295,1.184c1.163-0.777,3.605-0.669,3.549-2.219c0.517-0.133,0.252,0.482,0.148,0.591
	c24.945-8.61,52.11-18.064,76.764-26.623c0.365,0.02,0.251-0.181,0-0.148c1.882-0.516,5.17-1.377,6.951-2.219
	c0.293-0.138,0.308-0.062,0-0.147c0.009-0.134,1.475-0.049,0.74-0.295c0.124-0.385,0.648,0.284,0.887-0.148
	c0.589-0.049-0.159-0.407,0.592-0.148c-0.056-0.357,0.341-0.182,0.592-0.296c0.34-0.153,1.074-0.924,0.888-0.295
	c-0.148,0-0.296,0-0.443,0c1.972-0.334,2.854-1.419,4.881-1.479c-0.215-0.278,1.744-1.159,2.515-0.888
	c1.875-1.532,5.596-1.659,7.69-2.958c1.055-0.654,2.163-2.402,3.106-3.55c2.732-3.323,5.169-6.186,7.839-9.466
	c1.29-1.585,1.858-2.528,3.697-4.585c0.749-0.838,1.464-1.777,2.071-2.515c1.439-1.75,3.101-4.134,5.028-5.916
	c0.297-0.346-0.065-0.346-0.147,0c-0.146-0.595,1.601-1.354,1.479-1.923c-0.404,0.698-0.5,0.247,0-0.148
	c-3.33-1.206-7.698-1.372-11.536-2.07c-0.1,0-0.197,0-0.296,0c-2.891-0.66-6.076-1.023-9.171-1.479c-0.098,0-0.196,0-0.296,0
	c-2.062-0.52-4.08-0.711-6.212-1.035c-1.97-0.299-4.26-1.17-6.064-1.035c-1.512,0.112-4.831,1.898-6.359,2.515
	c-6.348,2.561-12.991,5.114-18.932,7.69c-0.05,0-0.1,0-0.148,0c-5.495,2.196-11.052,4.332-16.418,6.656c-0.05,0-0.099,0-0.147,0
	c-16.835,6.682-34.952,14.085-52.211,21.003c-2.5,1.002-5.257,1.726-7.396,2.958c-0.442,0.255-0.835,0.776-1.331,1.035
	c-0.828,0.433-1.886,0.399-2.662,0.888c-0.556,0.35-0.875,0.933-1.332,1.479c-0.523-0.759-0.768-1.796-0.887-2.959
	c1.548-0.032,3.098-0.936,4.733-1.33c-0.084,0.138-0.411,0.223-0.148,0.295c33.793-13.24,67.132-26.938,100.725-40.379
	c-1.146-0.628-2.973-0.577-4.438-0.888c-0.049,0-0.099,0-0.147,0c-5.288-0.978-11.144-1.871-16.862-2.81
	c-1.862-0.307-3.86-0.888-5.62-0.888c-2.918,0-6.478,1.248-9.91,1.923c-21.349,4.202-42.741,8.385-64.043,12.425
	c-1.644,0.312-3.483,0.393-4.881,0.887c-0.513,0.183-1.07,0.793-1.775,1.035c-0.936,0.323-2.146,0.151-2.81,0.444
	c-0.601,0.266-0.539,0.979-1.184,0.888c-0.322-0.812-0.327-1.94-0.295-3.106c1.694,0.509,3.634-0.994,5.177-0.147
	c-0.535,0.501-1.444,0.626-2.367,0.739c2.982-0.286,6.068-1.025,9.171-1.627c3.096-0.601,6.222-1.286,9.318-1.774
	c-0.004-0.145-0.181-0.115-0.296-0.148c-0.701-0.286,0.546,0.004,0.888,0c-0.23-0.345-0.216-0.239,0.74-0.147
	c-0.344-0.211-0.018-0.423,0.887-0.444c-0.045,0.2-0.37,0.122-0.591,0.147c0.259,0.438,0.788-0.085,1.183,0
	c0.705-0.185-0.545,0.003-0.148-0.296c0.139-0.104,1.274-0.294,1.035,0c-0.147,0-0.296,0-0.444,0c-0.206,0.4,0.874-0.113,1.332,0
	c-0.004-0.144-0.181-0.114-0.296-0.146c-0.738-0.251,0.638-0.088,0.887,0c-0.23-0.346-0.217-0.24,0.739-0.148
	c-0.532-0.338-0.134-0.293,0.888-0.148c-0.723-0.303-0.487-0.189,0.147-0.443c0.557-0.113,0.708,0.181,1.183,0.147
	c-0.273-0.301-0.13-0.325,0.74-0.147c-0.639-0.348,2.058-0.884,2.958-0.592c0.388-0.051-0.244-0.243-0.296-0.147
	c0.157-0.291,1.365-0.387,1.775-0.148c-0.131-0.436,1.324-0.57,2.219-0.739c14.393-2.73,29.976-5.771,44.225-8.727
	c-10.094-2.134-20.873-3.582-31.357-5.325c-0.049,0-0.099,0-0.147,0c-8.36-1.5-16.858-2.862-25.44-4.141c-0.049,0-0.099,0-0.148,0
	c-5.818-0.644-12.4-2.725-18.489-3.106c-2.121-0.133-4.708-0.364-6.36,0c-0.032-1.166-0.026-2.294,0.296-3.106
	c0.884,1.188,3.024,1.117,4.733,1.479c0.434,0.156,0.684,0.499,1.035,0.739c24.422,3.669,49.742,8.031,74.545,11.981
	c1.614,0.257,3.276,0.865,4.733,0.887c2.008,0.029,4.309-0.89,6.508-1.331c6.533-1.312,13.228-2.213,19.376-3.993
	c-7.808-2.941-15.627-5.869-23.518-8.727c-0.049,0-0.099,0-0.147,0c-1.156-0.62-2.511-1.04-3.846-1.479c-0.049,0-0.099,0-0.148,0
	c-5.647-2.339-11.6-4.374-17.453-6.508c-0.049,0-0.099,0-0.147,0c-2.083-0.975-4.419-1.694-6.656-2.515c-0.049,0-0.099,0-0.147,0
	c-0.999-0.578-2.28-0.874-3.402-1.331c-0.049,0-0.099,0-0.147,0c-8.481-3.302-17.174-6.393-25.736-9.614c-0.05,0-0.099,0-0.148,0
	c-1.891-0.82-3.899-1.523-5.916-2.218c-0.049,0-0.099,0-0.148,0c-3.298-1.436-6.885-2.581-10.354-3.846c-0.049,0-0.098,0-0.147,0
	c-1.405-0.909-2.83-1.01-4.733-1.184c-1.442-0.132-2.695-1.499-4.141-1.035c-0.089-1.371,0.212-2.352,0.74-3.106
	c0.567-0.075,0.097,0.889,0.591,0.888c1.692,0.526,3.665,0.771,4.437,2.219c31.414,11.466,64.829,23.806,97.175,35.793
	c2.176,0.807,4.802,2.238,6.509,2.367c2.449,0.185,5.777-1.127,8.431-1.627c8.697-1.642,16.974-3,25.292-4.881
	c-7.278-8.696-14.631-17.318-22.187-25.736c-0.953-0.279-1.849-0.616-2.811-0.888c-0.049,0-0.098,0-0.147,0
	c-0.881-0.449-1.905-0.757-2.958-1.035c-0.05,0-0.099,0-0.147,0c-20.554-7.007-41.351-13.77-62.121-20.559
	c-0.477-0.166-0.878-0.405-1.479-0.444c-2.842-1.103-5.836-2.052-8.875-2.958c-0.049,0-0.099,0-0.148,0
	c-8.673-3.159-17.879-5.785-26.475-9.022c-0.674-0.181-0.581,0.406-1.184,0.296c-1.723-0.35-3.386-1.933-5.028-1.035
	c0.292-1.138,0.68-2.18,1.331-2.958c0.925,1.258,3.111,1.16,4.142,1.923c0.042,0.031,0.358,0.778,0.296,0.739
	c1.125,0.709,4.563,1.457,6.36,2.07c32.105,10.971,65.933,21.514,97.767,32.244c-5.736-7.576-12.895-15.011-18.933-22.777
	c-23.299-12.889-46.856-25.521-69.96-38.604c-0.487,0.007-0.737,0.25-1.331,0.148c-1.409-0.56-2.669-2.357-4.29-1.775
	c0.295-1.134,0.802-2.057,1.627-2.662c0.86,1.33,2.606,1.409,3.698,2.366c0.367,0.323,0.506,0.866,0.887,1.184
	c2.101,1.75,5.802,3.178,8.431,4.585c19.314,10.337,38.918,21.838,58.127,31.948c-15.629-19.326-32.683-38.51-48.81-57.832
	c-2.083-0.776-2.656-3.062-4.732-3.846c0.383-0.966,1.386-2.041,2.219-2.07c-0.093,1.776,1.636,2.858,2.662,3.993
	c-0.387-0.064,0.028,0.618,0.296,1.035c1.407,2.196,3.632,4.379,5.473,6.509c5.388,6.233,11.155,13.074,16.565,19.228
	c-0.044,0.522-0.4-0.521-0.443,0c0.891,0.539,1.375,1.484,2.219,2.07c-0.044,0.522-0.4-0.521-0.444,0
	c0.524,0.393,2.778,2.616,1.479,1.628c4.097,4.547,8.13,9.615,12.572,14.79c3.243,3.779,6.517,7.674,9.909,11.537
	c1.322,1.506,2.3,3.573,3.993,4.733c1.962,1.342,4.424,2.307,6.656,3.549c6.35,3.535,13.077,7.354,19.672,10.798
	c-17.991-32.003-36.361-63.622-54.577-95.4c-1.861-0.752-1.971-3.256-3.551-4.29c0.362-1.019,1.424-1.337,2.219-1.922
	c0.229,1.482,1.292,3.05,2.219,4.289c0.128,0.59-0.221,1.093,0,1.331c9.715,16.939,19.392,33.765,28.99,50.732
	c6.012,10.629,11.732,20.895,18.192,31.948c9.724,16.637,18.687,33.242,28.398,49.104c3.021-0.528,6.166-0.932,8.874-1.774
	c0-3.402,0-6.804,0-10.206c-6.259-2.42-13.234-4.906-19.672-6.655c-0.08-0.61-0.378-1.002-0.739-1.331
	c6.646,1.735,13.452,4.592,20.263,6.655c0.332-1.099,0.06-2.8,0.148-4.142c-6.676-3.865-13.695-7.771-20.559-11.536
	c-2.3-1.262-4.562-2.534-6.952-3.402c-0.222-0.715-0.627-1.246-1.035-1.774c2.593,0.69,4.729,2.424,7.1,3.697
	c6.97,3.746,14.266,7.655,21.298,11.537c0.271-7.692,0.148-15.774,0.148-23.961c0-2.685,0.488-5.678,0-7.987
	c-0.305-1.443-2.674-4.695-3.55-6.212c-8.198-14.203-17.056-28.121-25.292-42.006c-9.557-16.109-19.47-31.93-28.99-48.07
	c-0.225-0.417-0.958-0.323-1.183-0.74c-0.936-1.234-0.94-3.398-2.811-3.697c0.503-1.026,1.662-1.395,2.958-1.627
	c-0.332,0.583,0.233,1.145-0.147,1.627c1.317,0.943,1.359,2.646,1.922,3.993c0.869,2.081,2.568,4.126,3.847,6.212
	c3.365,5.492,7.291,12.448,10.944,18.488c4.855,8.026,9.679,15.979,14.495,23.961c6.034,9.999,10.994,18.153,15.53,25.884
	c3.351,5.71,7.348,11.812,12.128,19.671c0.343-0.643,0.052-1.921,0.148-2.81c0-0.148,0-0.296,0-0.444c0-0.641,0-1.281,0-1.923
	c0-0.197,0-0.394,0-0.592c0-0.049,0-0.098,0-0.147c0-2.515,0-5.029,0-7.543c0-0.542,0-1.085,0-1.627
	c-0.021-5.136,0.033-10.522,0-15.234c0.11-3.457-2.151-7.557-3.402-10.798c-7.655-19.844-15.648-39.105-23.221-59.163
	c-0.574-1.52-1.105-3.378-1.774-4.437c-0.254-0.4-1.015-0.893-1.184-1.184c-0.576-0.989-0.459-2.428-1.184-3.402
	c0.069-0.612-0.691-0.393-1.035-0.591c0.61-0.77,1.771-0.989,2.958-1.184c0.085,1.743,2.252,4.25,1.035,5.917
	c1.563,2.964,2.543,6.442,3.993,10.058c9.424,23.493,21.146,53.337,31.8,80.906c0.41,1.059,0.936,2.065,1.332,2.958
	c0.378,0.852,0.333,1.611,1.035,2.07c-0.228,0.514,0.353,1.32,0.888,2.515c0.499,1.113,0.977,2.546,1.627,3.55
	c0.053,0.892-0.349,1.327-0.296,2.219c-3.962-9.153-7.368-18.861-11.241-28.103c-0.302,1.03-0.109,3.34-0.147,4.142
	c0,0.098,0,0.197,0,0.296c-0.269,6.204-0.148,13.061-0.148,19.967c0,2.232-0.369,4.67,0,6.656c0.239,1.286,1.31,2.581,2.071,3.846
	c1.605,2.668,3.32,5.286,5.324,8.874c0.26,0.466,0.438,1.421,1.184,1.331c-0.168,0.474-0.301,0.981-0.296,1.627
	c-2.968-4.132-5.201-8.998-8.135-13.164c-0.345,8.776-0.05,18.192-0.148,27.216c0,0.049,0,0.099,0,0.147c0,1.035,0,2.071,0,3.106
	c1.438,0.929,2.988,1.745,4.586,2.515c0.787-2.881,1.303-4.539,1.33-6.805c0.213,0.034,0.053,0.442,0.296,0.444
	c0.079-0.572-0.264-0.723-0.147-1.331c0.138,0.084,0.225,0.411,0.296,0.147c-0.206-1.042,0.725-1.967,0.296-3.401
	c0.493,0.604,0.352-0.705,0.443-1.184c3.252-16.93,6.553-36.716,9.614-54.282c3.311-19,6.946-38.371,9.614-56.353
	c0.639-1.027,0.688-2.954,0.591-3.993c0.62,0.759-0.163-0.873,0.444-0.592c0.072-0.467-0.267-0.522-0.148-1.036
	c0.214,0.034,0.052,0.441,0.297,0.444c-0.311-0.999,0.079-1.827,0.295-3.106c0.125-0.74-0.003-2.168,0.444-1.183
	c-0.071-4.761,2.233-11.264,2.219-16.27c0.136-0.258,0.462-0.326,0.887-0.296c-0.118-1.792,1.015-3.408,0-4.141
	c-0.38-0.05-0.176,0.825-0.444,1.331c-0.189-0.456-0.287-1.776-0.147-2.071c0.917-0.384,2.298-0.06,2.959,0.296
	C216.744,22.476,216.62,23.781,216.57,25.161z M238.458,205.46c-1.112,0.809-2.543,1.302-3.4,2.366
	c4.78,4.689,9.444,8.053,14.051,12.276c0.006-0.701-1.256-0.908-0.888-1.479c4.211-0.078,8.756,0.178,12.424-0.443
	C253.208,213.982,246.142,209.412,238.458,205.46z M226.626,153.101c-0.332,2.393-1.332,5.651-1.035,7.691
	c5.058-4.459,10.455-8.576,15.383-13.164c0.902-4.128,3.03-7.813,3.55-11.833c0.419,0.224,0.87-1.3,0.591-1.774
	c0.4,0.205,0.853-1.319,0.592-1.775c1.18-1.345,0.944-2.753,1.331-3.993c0.015-0.045,0.285,0.157,0.296,0.148
	c0.147-0.119-0.155-0.572-0.147-0.592c0.02-0.052,0.281,0.162,0.296,0.147c0.266-0.271-0.165-0.57,0-1.035
	c-0.015,0.04,0.612-0.452,0.443-0.888c0.014,0.034,0.304-0.323,0.444-0.739c0.243-0.725,0.154-0.867,0.296-1.184
	c0.272-0.607,0.167-0.514,0.295-0.887c0.155-0.449,0.356-0.815,0.148-1.332c0.608,0.073-0.143-0.51,0.443-0.147
	c0.111-0.242-0.165-0.48-0.147-0.592c0.029-0.194,0.809-1.419,0.739-1.183c0.072-0.244-0.397-0.903,0.147-0.592
	c0.044-0.291-0.199-0.294-0.296-0.444c0.744-0.062,1.128-2.24,1.184-2.958c-0.331,0.853-0.709,1.658-0.888,2.662
	c-0.257-0.011-0.459,0.033-0.591,0.148c-7.137,8.641-14.514,17.04-21.742,25.588c-0.22,2.442-0.786,4.538-1.035,6.952
	C226.744,151.838,226.653,152.436,226.626,153.101z M193.792,151.621c-0.236,1.361-0.732,3.092-0.592,3.994
	c0.161,1.035,1.652,2.957,2.366,4.142c2.296,3.804,4.25,7.162,6.36,10.648c0.332,0.549,0.636,1.401,1.184,1.628
	c0.402-1.13,3.911-2.919,4.142-4.733c0.08-0.637-0.925-2.239-1.332-3.254c-3.286-8.188-6.521-17.64-9.91-24.701
	c0,0.099,0,0.197,0,0.296C195.369,142.809,194.413,148.051,193.792,151.621z M152.525,172.624c0.472,0.511,2.181,2.466,3.106,3.55
	c1.085,1.271,2.021,2.711,3.105,3.846c0.422,0.441,1.074,0.694,1.479,1.184c0.099,0.117-0.448-0.163-0.147,0.296
	c0.532,0.815,1.604,1.334,2.219,2.07c2.327,2.79,4.565,5.888,7.099,8.431c1.237-0.144,2.449-0.312,3.402-0.739
	c-3.647-6.656-7.457-13.151-11.241-19.672c-4.519-1.155-8.85-3.274-13.164-4.142c-0.316-0.523-1.277-1.183-1.183-1.627
	c4.597,1.369,8.843,3.089,13.46,4.438c-2.293-4.511-4.857-8.75-7.396-13.016c-8.603-4.513-17.218-9.8-25.736-13.903
	C135.569,152.778,144.591,163.513,152.525,172.624z M192.312,160.792c-0.996,4.969-1.899,10.03-2.662,15.234
	c2.465,1.233,4.64,2.756,7.248,3.846c1.8-2.438,3.781-4.44,5.472-6.656c-3.011-5.42-6.06-10.802-9.466-15.826
	c-0.327,0.955-0.472,2.092-0.592,3.254C192.312,160.693,192.312,160.742,192.312,160.792z M203.553,173.068
	c0.614,1.505,1.715,2.524,2.219,4.141c1.632-0.882,2.92-2.108,4.142-3.401c-0.884-1.729-1.333-3.894-2.367-5.473
	C206.204,169.901,204.807,171.413,203.553,173.068z M292.297,170.997c0.493-0.327,1.447-0.735,0.74-1.035
	c-0.672-0.284-3.052,0.534-4.29,0.739c-8.693,1.443-16.502,2.788-24.7,4.142c-1.447,0.239-3.166,0.175-4.289,0.592
	c-1.053,0.392-2.221,1.902-3.106,2.662c-2.748,2.359-5.451,4.497-7.986,6.656c-0.397,0.338-1.14,0.727-1.035,1.331
	c6.704,0,13.409,0,20.114,0C275.128,181.13,284.623,176.1,292.297,170.997z M202.814,173.955c-1.853,2.043-3.741,4.049-5.325,6.36
	c0.905,0.924,2.66,0.267,4.438,0.443c1.067-0.953,2.224-1.819,3.254-2.81C204.548,176.462,203.709,175.18,202.814,173.955z
	 M183.881,176.026c-0.16,0.887,0.116,1.354-0.147,2.07c1.233,0.591,3.152,1.284,4.289,1.479c-0.205-0.75,0.448-1.917,0.296-3.106
	c-1.446-0.772-2.9-1.536-4.289-2.366c-0.284,0.357-0.094,1.188-0.148,1.774C183.881,175.928,183.881,175.977,183.881,176.026z
	 M210.209,175.139c-1.171,1.097-2.672,1.865-3.551,3.254c1.104,2.429,2.796,5.77,6.509,3.846
	C212.215,179.838,211.425,177.275,210.209,175.139z M250.883,177.062c-6.701,0.989-13.17,2.212-19.819,3.254
	c-0.602,1.913-1.414,3.615-1.775,5.769c5.473,0,10.946,0,16.418,0c3.773-3.425,7.92-6.477,11.537-10.058
	c-2.191,0.225-4.248,0.584-6.213,1.035C250.982,177.062,250.933,177.062,250.883,177.062z M189.354,177.209
	c-0.118,0.917-0.286,1.785-0.443,2.663c1.756,0.486,3.677,1.849,5.62,1.774c0.75-0.028,1.279-0.719,2.071-0.296
	c0.054-0.62-0.482-0.105-0.739-0.147C194.341,179.224,191.6,178.464,189.354,177.209z M205.624,178.984
	c-0.626,0.656-1.571,0.992-1.923,1.923c1.213,0.267,2.463,0.495,3.551,0.888C207.22,180.915,206.499,179.507,205.624,178.984z
	 M186.692,185.936c0.364-1.115,0.633-3.605,1.035-5.177c-1.085-0.64-2.4-1.051-3.846-1.331c-0.076,2.17-0.351,5.837,0,8.727
	c-0.188,0.454-0.504,0.778-0.739,1.184C184.789,188.745,185.488,186.484,186.692,185.936z M188.762,181.055
	c-0.269,1.062-0.517,2.146-0.591,3.402c1.232-0.838,2.869-1.272,3.845-2.366C190.927,181.75,189.969,181.278,188.762,181.055z
	 M198.376,182.83c0.53,0.123,1.175,0.712,1.627,0.443C199.817,182.758,198.772,182.25,198.376,182.83z M212.575,183.569
	c0.374,0.218,0.662,0.522,1.184,0.592c0.107-0.452-0.15-0.539-0.147-0.888C213.153,183.259,212.791,183.341,212.575,183.569z
	 M186.1,188.894c0.434-0.751,1.711-1.441,1.774-2.07C187.376,187.461,185.576,188.199,186.1,188.894z M375.716,186.972
	c-0.965-0.19-2.371-0.188-2.957,0C373.203,187.319,374.912,187.162,375.716,186.972z M228.549,188.007c0,0.049,0,0.099,0,0.147
	c-0.993,2.804-1.952,5.641-2.81,8.579c1.531,0.786,2.918,1.716,4.437,2.514c3.539-2.834,7.119-6.157,10.501-9.021
	c1.176-0.995,2.695-1.7,3.255-3.106c-5.029,0-10.058,0-15.087,0C228.76,187.429,228.479,187.541,228.549,188.007z M265.378,187.268
	c-3.113-0.219-6.194-0.148-9.466-0.148c-2.83,0-7.223-0.646-9.762,0c-1.042,0.265-2.694,1.988-3.846,2.958
	c-3.933,3.313-7.674,6.654-11.094,9.762c2.416,1.479,4.848,2.942,7.396,4.29C247.497,198.473,256.761,193.194,265.378,187.268z
	 M205.328,187.711c-1.872-0.243-2.811,1.682-2.07,3.106C204.786,190.62,205.269,189.378,205.328,187.711z M199.412,190.817
	c0.102,0.747-0.355,1.023-0.888,0.739c-0.233,1.344-2.003,1.151-2.515,2.219c1.283-0.592,2.581-1.167,3.551-2.071
	c1.207-4.594-4.283-3.365-6.064-1.774C194.162,192.519,197.471,190.279,199.412,190.817z M192.312,188.746
	c-0.474,0.02-0.65,0.336-0.591,0.888c0.147,0,0.295,0,0.443,0C192.334,189.459,192.332,189.111,192.312,188.746z M209.026,189.189
	c-0.995,0.241-2.197,2.516-1.331,3.846c0.604,0.384,1.949,0.809,1.922,1.331c-0.378,0.069-0.838-0.522-1.035-0.147
	c1.952,1.401,3.616,3.09,5.177,4.881c0.042-0.259-0.416-0.738,0-0.888c0.402,0.093,0.369,0.618,0.888,0.592
	c-0.239-1.338-0.979-2.176-1.627-3.105c2.386-0.311,2.809-4.288,0.592-4.586c0.749,0.43,1.895,1.723,1.035,2.811
	C213.901,192.74,211.526,188.584,209.026,189.189z M181.811,190.817c-2.444,0.365-4.766,0.854-7.1,1.331
	c-0.129,0.352,0.298,1.225,0.888,1.331C177.649,192.572,180.004,191.969,181.811,190.817z M216.57,191.853
	c0.045-0.588-0.284-0.801-0.889-0.74C215.524,191.803,216.124,192.224,216.57,191.853z M184.03,191.261
	c-2,1.353-3.204,4.29-3.551,6.804C181.526,195.66,182.755,193.438,184.03,191.261z M199.56,192.296
	c0.563-0.07,0.923,0.062,1.035,0.444c-0.151,0.144-0.3,0.292-0.444,0.443c0.595,0.052,1.083-0.003,1.184-0.443
	c-0.991-0.171,0.066-0.646,0.147-1.036C200.568,191.628,199.842,191.74,199.56,192.296z M190.981,191.853
	c-1.768,0.693-4.246,4.248-1.331,5.324C190.397,195.641,192.672,193.635,190.981,191.853z M173.528,192.444
	c-1.194,0.087-2.429,0.135-3.105,0.739c0.61,0.474,0.882,1.286,1.627,1.627C173.541,194.572,174.994,193.697,173.528,192.444z
	 M178.853,199.1c0.685-2.372,1.145-4.968,2.515-6.655c-1.979,0.437-3.505,1.327-5.325,1.922
	C176.776,196.147,177.64,197.799,178.853,199.1z M149.272,203.832c7.023-2.934,14.299-5.618,21.446-8.43
	c-0.706-2.995-2.823-2.029-5.77-1.479c-9.305,1.738-19.464,3.824-27.954,5.324C140.543,201.32,145.162,202.321,149.272,203.832z
	 M194.087,195.254c-0.26-0.135-0.514-0.274-0.443-0.739c-1.985,0.125-2.519,1.342-3.402,2.811c0.018,0.426,0.631,0.257,0.591,0.739
	c-0.636,1.188-1.247,3.188-0.887,4.881c0.038-0.85,0.226-1.549,0.592-2.071c0.844,0.183-0.182,0.964,0.443,1.184
	c0.771-2.482,2.788-4.508,3.698-6.359c-0.629,0.262-1.277,1.282-1.775,1.183C193.381,196.422,193.736,195.84,194.087,195.254z
	 M176.93,198.36c-0.707-1.209-1.272-2.611-2.219-3.55c-0.471,0.515-1.554,0.418-1.923,1.035c1.288,1.571,2.96,3.523,4.289,5.028
	c0.449,0.509,0.93,1.356,1.479,1.184C178.705,200.676,177.589,199.487,176.93,198.36z M209.174,196.289
	c-0.275,0.142-0.495-0.442-0.593,0c0.139,0.158,0.546,0.047,0.444,0.444c-0.275,0.142-0.494-0.443-0.592,0
	c1.702,1.01,2.861,2.562,4.141,3.993c0.368-0.625-0.279-1.222-0.146-1.479c0.339,0.204,0.348,0.738,0.739,0.888
	c-0.649-2.608-3.453-4.627-5.325-5.028C208.267,195.52,208.862,195.763,209.174,196.289z M169.831,196.881c-0.05,0-0.099,0-0.148,0
	c-5.172,1.977-10.342,3.956-15.382,6.064c-0.05,0-0.099,0-0.148,0c-1.071,0.359-2.057,0.803-3.105,1.184
	c1.294,1.163,3.127,1.278,4.732,1.922c5.211,2.089,10.558,4.207,15.679,6.213c0.174,0.023,0.42-0.025,0.443,0.147
	c0.337,0.203,0.557-0.381,0.592,0c-0.436,0.304-0.821,0.657-1.035,1.184c1.111-1.237,3.113-3.214,3.845-4.438
	c0.046-0.075,0.075,0.13,0.297-0.148c0.171-0.216-0.166-0.312,0-0.591c0.304-0.511,1.625-0.875,0.592-0.739
	c1.462-1.862,4.132-3.954,5.324-6.656c-0.97,1.297-2.014,2.522-2.958,3.846c0.17-0.175,0.167-0.522,0.147-0.888
	c-2.415-2.466-4.646-5.115-6.804-7.839C171.018,196.194,170.404,196.519,169.831,196.881z M200.891,197.177
	c1.078-0.153,0.027,0.341,0.443,0.592c0.203-0.29,0.906-0.08,1.184-0.296c-0.318-0.55-0.174-0.273,0.147-0.739
	C201.885,196.692,201.248,196.793,200.891,197.177z M195.566,196.881c-0.433,0.166-1.055,0.451-1.479,0.888
	c-0.901,0.928-2.482,3.544-1.627,4.733c0.131-0.51,0.19-1.092,0.739-1.184c-0.118,0.276-0.247,0.542-0.296,0.888
	c0.291,0.044,0.293-0.2,0.444-0.296c0.118,0.513-0.221,0.568-0.148,1.035c0.919-1.892,3.029-4.099,3.254-5.62
	c-0.816-0.024-1.154,1.207-1.627,1.035C195.108,197.946,195.766,197.305,195.566,196.881z M206.511,197.473
	c1.303,1.261,3.819,2.456,5.028,4.289C210.848,199.447,208.908,197.592,206.511,197.473z M214.793,199.543
	c0.864-0.122,1.25-0.722,1.184-1.774C215.258,198.035,214.795,198.559,214.793,199.543z M225.444,197.769
	c-0.656,0.713,0.153,1.447,0.147,2.366c2.977,2.102,5.323,4.834,8.431,6.804c1.135-0.787,2.604-1.24,3.401-2.366
	c-2.502-1.243-4.621-2.873-7.247-3.994c-0.709,0.425-1.131,1.138-1.923,1.479c-0.045-0.349-0.513-0.275-0.443-0.739
	c0.397-0.539,1.151-0.722,1.331-1.479C227.886,199.172,226.828,198.308,225.444,197.769z M198.376,198.656
	c-2.176,0.304-4.005,2.984-3.697,5.769c1.448-1.56,2.866-3.937,3.697-5.621C198.319,199.031,198.199,198.825,198.376,198.656z
	 M134.924,199.987c-0.189-0.066-0.292-0.2-0.592-0.148c-5.786,1.011-12.545,2.385-18.34,3.551c-2.063,0.415-4.171,0.521-5.917,1.479
	c6.085,1.078,13.108,2.105,19.376,3.105c2.178,0.348,4.656,1.246,6.508,1.035c0.854-0.097,1.851-0.805,2.811-1.183
	c3.069-1.208,5.953-1.98,8.431-3.55C143.188,202.911,138.955,201.396,134.924,199.987z M185.212,202.354
	c1.713,0.512,3.566-0.069,3.402-1.922C187.143,199.406,184.959,200.314,185.212,202.354z M226.183,202.649
	c0.046-0.349,0.514-0.275,0.443-0.739c-0.261-0.133-0.432-0.357-0.739-0.443C225.877,201.969,225.841,202.499,226.183,202.649z
	 M219.97,208.122c0.341-1.576,0.84-4.426,0.148-6.064C220.603,204.058,219.904,206.578,219.97,208.122z M190.093,206.051
	c0.243,1.259,0.071-1.039,0.148-2.07c0.049-0.65,0.339-1.362,0.147-1.479C190.002,203.507,189.977,204.937,190.093,206.051z
	 M228.994,210.192c0.538-0.338,3.994-2.28,3.993-2.81c0-0.507-2.084-1.718-2.663-2.219c-1.23-1.065-1.957-1.907-2.81-2.367
	c-1.556,0.564-1.331,1.813-1.479,3.847c-0.152,2.104-0.861,4.26-1.183,5.768C226.091,211.956,227.384,211.203,228.994,210.192z
	 M208.73,204.72c-0.267-0.82-1.183-1.772-1.923-1.627C207.502,203.582,208.081,204.187,208.73,204.72z M215.681,203.241
	c0.336,1.801,0.069,3.907,0.148,5.473C216.362,207.384,217.587,203.938,215.681,203.241z M200.003,206.051
	c0.67-0.436,1.748-1.97,1.331-2.514C200.607,204.092,200.126,204.893,200.003,206.051z M148.679,205.164c-0.049,0-0.098,0-0.147,0
	c-1.835,0.689-3.634,1.354-5.473,2.07c-1.648,0.643-3.399,1.21-4.733,2.219c10.759,1.667,21.401,3.448,32.244,5.029
	c-0.239,0.353-0.531,0.652-0.739,1.035c0.966-0.534,1.305-1.153,1.479-2.219c-7.52-2.785-14.609-5.999-22.481-8.431
	C148.828,205.017,148.708,205.044,148.679,205.164z M184.917,206.644c-0.486,1.884,1.562,6.284,3.551,6.212
	c0.974-0.036,1.702-0.784,2.219-2.07c0.208,1.763,1.346,2.598,2.07,3.845c-0.817,0.059-1.843,0.572-1.627,1.184
	c1.254,0.121,1.857-0.41,2.219-1.184c0.031,0.166,0.164,0.23,0.296,0.296c0.021-0.595-0.38-0.392-0.74-0.296
	c-0.295-1.456-1.738-2.548-2.366-4.289c-0.543-1.506-0.499-3.199-1.035-4.881c-0.09,1.102,0.207,1.676,0.147,2.219
	C189.814,205.273,185.445,204.603,184.917,206.644z M175.007,213.299c1.03-1.807,2.375-4.128,3.55-6.509
	c-1.746,2.001-3.77,3.726-5.029,6.213C174.196,213.27,175.112,213.271,175.007,213.299z M179.296,207.53
	c-1.551,1.703-2.48,4.026-3.55,6.213c1.98,0.779,3.838,1.683,6.064,2.219C180.852,213.271,179.736,210.738,179.296,207.53z
	 M194.827,208.861c0.563,2.426,3.083,4.437,4.733,5.029c-1.829-0.964-3.457-2.951-4.142-4.882c-0.08-0.223,0.001-1.521-0.444-1.183
	C194.307,207.682,194.782,208.67,194.827,208.861z M228.845,211.524c-1.009,0.633-4.824,2.29-5.028,3.401
	c-0.233,1.266,1.3,2.524,1.479,3.994c6.95-0.001,13.811-0.094,20.559-0.297c-3.745-3.697-7.866-7.021-11.979-10.354
	C232.504,209.106,230.987,210.18,228.845,211.524z M154.892,240.81c2.083-0.733,4.474-1.263,6.063-2.07
	c0.836-0.425,0.787-1.154,1.184-1.924c0.092-0.178,0.501-0.282,0.592-0.443c0.314-0.555,0.277-0.865,0.592-1.331
	c0.555-0.824,0.861-1.419,1.479-2.514c1.214-2.15,1.736-3.538,2.958-5.77c0.09-0.165,0.354-0.264,0.443-0.442
	c0.151-0.309-0.016-0.741,0.147-1.036c0.177-0.319,0.71-0.556,0.888-0.888c0.227-0.424,0.403-0.815,0.592-1.183
	c1.561-3.046,2.985-5.7,4.437-8.727c-0.316-0.17-2.248-1.505-2.218,0.296c0.505,0.184,1.33,0.05,1.774,0.295
	c-0.3,0.194-0.203,0.783-0.592,0.889c-0.703-0.135-1.34-0.337-2.218-0.297c-7.396,8.973-14.814,17.923-22.039,27.067
	C150.848,242.44,152.816,241.54,154.892,240.81z M174.267,216.108c-3.722,7.421-7.926,14.358-11.536,21.891
	c7.152-2.561,14.428-4.996,21.446-7.69c-0.476-4.06,0.649-9.721-1.035-12.572C180.603,216.774,177.184,216.693,174.267,216.108z
	 M196.009,216.404c-0.476,2.766,3.591,2.998,6.212,2.663C201.096,217.235,197.699,217.675,196.009,216.404z M221.45,218.92
	c0.757,0.089,0.81,0.18,1.479,0c-0.044-0.646-0.152-1.228-0.442-1.628C222.136,217.83,221.659,218.24,221.45,218.92z
	 M226.479,222.174c0.569,1.649,1.126,3.311,1.774,4.881c3.232,0.514,6.675,0.819,9.763,1.479c-0.115,0.033-0.292,0.004-0.297,0.147
	c1.886-0.139,3.563,0.24,5.474,0.593c-0.115,0.032-0.292,0.004-0.297,0.147c0.344,0.005,1.435-0.44,1.036,0.147
	c0.053-0.025,1.557-0.331,1.479,0c0.019-0.083-0.745,0.119-0.593,0.147c1.167,0.225,1.152-0.191,2.663,0.148
	c-1.472,0.14,1.493,0.176,1.923,0.296c-0.187-0.052-0.425,0.15-0.444,0.148c0.646,0.08,1.881-0.213,2.367,0.147
	c-0.103-0.076-0.311,0.146-0.297,0.147c0.934,0.154,2.621-0.158,2.071,0.296c0.667-0.036,3-0.196,2.07,0.296
	c1.914-0.473,4.075,0.714,5.917,0.297c-4.462-4.02-9.184-7.777-13.607-11.833c-7.437,0.016-14.226,0.161-21.742,0.296
	c0.157,0.777,0.335,1.537,0.739,2.07C226.479,222.074,226.479,222.124,226.479,222.174z M223.077,219.955c-0.838,0-1.676,0-2.514,0
	c-1.684,1.866-3.681,3.419-5.621,5.028c2.779,0.682,6.456,1.224,9.318,1.332C223.876,224.184,223.612,221.935,223.077,219.955z
	 M225.147,224.983c-0.103,0.646,0.253,0.833,0.148,1.479c0.361,0.33,1.057,0.325,1.774,0.296c-0.867-2.287-1.52-4.79-2.662-6.803
	c-0.034,1.269,0.369,3.378,0.739,4.732C225.147,224.786,225.147,224.885,225.147,224.983z M200.447,222.469
	c-2.888-0.343-4.938-1.503-6.803-2.219C195.343,221.46,197.865,222.636,200.447,222.469z M185.065,220.694
	c-0.09,3.195,0.113,6.099,0.147,9.17c1.03-0.054,1.624-0.546,2.515-0.739C186.992,226.163,187.407,222.05,185.065,220.694z
	 M188.762,228.533c1.479-0.593,2.871-1.271,3.846-2.366c-1.739-0.874-3.14-2.087-4.881-2.958
	C187.958,225.098,188.387,226.789,188.762,228.533z M212.872,225.871c-0.319,0.321-0.863,0.418-1.332,0.591
	c-0.651,1.813-1.927,3.004-2.514,4.882c6.089,4.813,12.426,10.144,18.637,15.086c-1.008-6.388-2.045-12.747-3.255-18.933
	C220.537,226.981,216.661,226.469,212.872,225.871z M202.518,240.514c0.475-0.794,2.279-3.475,2.219-3.993
	c-0.132-1.115-2.592-3.309-3.697-4.586c-1.196-1.38-2.628-3.62-4.142-4.289c-2.514-1.109-5.257,1.983-7.84,2.07
	c1.475,8.387,3.223,16.498,4.881,24.701C196.848,250.126,199.963,244.777,202.518,240.514z M207.991,230.456
	c0.657-0.122,1.126-2.277,1.331-2.959c-0.688-0.183-3.15,0.624-3.994,0.74C205.945,228.223,207.343,230.576,207.991,230.456z
	 M228.845,246.726c0.049,1.373,1.248,1.538,2.219,2.367c1.904,1.626,3.735,3.184,5.62,4.437c-2.797-8.788-6.132-17.04-9.17-25.588
	c-0.725,0.035-1.12-0.26-1.923-0.147c0.236,1.341,0.375,2.779,0.739,3.993c0,0.05,0,0.099,0,0.147
	c0.153,1.13,0.255,2.31,0.593,3.255c0,0.049,0,0.099,0,0.147c-0.084,0.675,0.262,0.921,0.146,1.627c0.05,0,0.1,0,0.148,0
	c0,0.05,0,0.099,0,0.147c0.075,0.862,0.156,1.718,0.444,2.367c0,0.049,0,0.098,0,0.148c0.291,2.421,0.701,4.722,1.183,6.951
	C228.845,246.627,228.845,246.677,228.845,246.726z M206.216,229.864c-0.9-0.727-1.812-1.083-1.924-1.627
	c-1.656,0.064-3.833-0.093-5.029,0c1.948,2.49,3.854,5.021,6.36,6.952c0.872-2.114,2.123-3.612,2.663-4.586
	C207.771,231.974,207.029,230.521,206.216,229.864z M192.46,252.346c-1.396-7.38-2.802-14.75-4.438-21.89
	c-1.125,0.354-1.92,1.039-2.811,1.627c0.097,0.938-0.194,2.266,0.148,2.958c0,0.049,0,0.099,0,0.148
	c0.073,10.004,0.241,18.999,0.592,28.693c0,0.148,0,0.296,0,0.444c0.183,1.098-0.376,2.939,0.296,3.549
	c1.055-1.725,2.26-3.738,3.549-5.916c1.613-2.722,4.509-5.744,2.663-9.466C192.46,252.445,192.46,252.396,192.46,252.346z
	 M170.422,239.627c4.188-2.594,8.868-4.742,12.424-7.692c-6.986,2.579-14.09,5.04-21.15,7.544c-1.229,2.666-2.785,5.004-3.994,7.69
	C162.072,245.016,166.21,242.233,170.422,239.627z M227.958,247.762c-6.484-5.152-12.558-10.715-19.377-15.53
	c-0.523,1.596-0.979,3.261-1.626,4.732c7.251,8.292,14.681,17.36,22.038,25.44c0.346,0.379,0.966,1.254,1.627,1.035
	C229.687,258.26,228.835,252.997,227.958,247.762z M194.235,256.34c0.685,2.816,1.194,5.807,1.774,8.727
	c0.908-0.241,0.62-2.248,1.332-2.219c1.162-4.123,3.295-9.344,5.177-14.644c0.732-2.062,1.032-4.237,1.774-6.212
	c0.02-0.052,0.286,0.166,0.296,0.148c0.303-0.54,0.358-2.131,0.888-2.514c0.048-0.344-0.023-0.568-0.148-0.74
	c0.697-0.191,0.593-1.042,0.148-1.627C201.625,243.516,197.985,249.983,194.235,256.34z M156.519,247.909
	c1.305-3.22,3.1-5.435,3.993-7.987c-3.979,1.368-8.702,3.214-13.164,4.585c-3.407,4.163-6.855,8.613-10.205,12.721
	c-1.112,1.363-2.617,2.547-3.106,4.289C141.457,256.906,149.262,252.683,156.519,247.909z M366.251,247.317
	c0.592,0.088,2.387,0.669,3.254,0.444C368.359,247.725,366.857,246.973,366.251,247.317z M231.36,261.664
	c0.162,1.514,0.406,2.946,0.74,4.289c2.529,2.601,4.899,5.506,7.395,8.283c2.69,2.995,5.139,6.299,7.987,8.727
	c-3.275-9.198-6.604-18.343-9.91-27.511c-2.906-2.024-5.367-4.493-8.283-6.508c0.394,3.453,0.964,6.727,1.628,9.91
	C230.956,259.899,231.141,260.799,231.36,261.664z M194.974,264.918c-0.359-2.548-0.913-4.904-1.479-7.247
	c-1.812,3.719-5.359,8.148-7.396,12.276c-0.29,0.589-0.046,1.139,0,1.627c0.642,6.742-0.351,13.897,0.592,20.855
	c2.203-6.296,5.112-13.996,7.396-20.56c0.785-2.259,1.984-4.691,0.887-6.804C194.974,265.018,194.974,264.968,194.974,264.918z"/>
<path fill-rule="evenodd" clip-rule="evenodd" fill="#555555" d="M237.423,80.773c0.875-3.988,1.325-7.264,1.924-11.093
	c0.18-0.434,0.321-0.151,0.443-1.035c-0.173,0.024-0.125,0.27-0.148,0.443c-0.18-1.181,0.585-2.035,0.444-2.958
	c0,0.099,0,0.197,0,0.296c0.422-0.336-0.208-0.867,0-1.479c0.379,1.545,0.566-2.402,0.591-2.515
	c0.137-0.608-0.021-0.833,0.148-1.627c0.107-0.498,0.617-1.377,0.444-1.775c0.159,0.544,0.413-1.331,0.147-1.775
	c0.16,0.037,0.101,0.294,0.296,0.296c0.139-1.258,0.48-3.324,0.443-3.845c0,0.098,0,0.197,0,0.296
	c1.271-6.436,2.405-14.114,3.697-21.003c-0.367-0.224-0.819-0.363-0.739-1.036c0.173,0.024,0.125,0.27,0.148,0.444
	c1.037-1.083,0.814-3.426,1.331-5.029c-0.71-0.021-0.357,1.022-0.592,1.479c0.016-0.8-0.665-1.541-0.591-1.923
	c1.392-0.06,2.43,0.232,3.105,0.888c-1.023,2.131-1.563,4.747-2.219,7.247c0,0.049,0,0.099,0,0.148
	c-0.437,1.487-0.636,3.21-0.887,4.881c0,0.049,0,0.099,0,0.148c-0.416,1.556-0.613,3.331-0.888,5.029c0,0.049,0,0.099,0,0.148
	c-0.632,3.066-1.12,6.275-1.628,9.466c0,0.099,0,0.197,0,0.296c-0.359,1.317-0.558,2.794-0.739,4.289
	c0.027,0.126-0.057,0.14-0.147,0.148c0,0.296,0,0.592,0,0.887c-0.655,3.092-1.148,6.346-1.627,9.614c0,0.049,0,0.099,0,0.148
	c-0.311,1.021-0.46,2.203-0.592,3.402c0,0.049,0,0.099,0,0.148c-0.428,1.199-0.492,2.763-0.739,4.142c0,0.099,0,0.197,0,0.296
	c-0.264,0.723-0.362,1.61-0.444,2.514c0,0.05,0,0.099,0,0.148c-1.127,5.726-2.062,11.645-2.958,17.601c0,0.05,0,0.099,0,0.148
	c-0.508,2.204-0.853,4.57-1.184,6.951c0,0.05,0,0.099,0,0.148c-0.642,3.154-1.122,6.47-1.626,9.762c0,0.099,0,0.197,0,0.296
	c-0.201,0.046-0.123,0.37-0.148,0.591c0,0.1,0,0.198,0,0.296c-0.662,3.036-1.105,6.29-1.627,9.467
	c-0.089,0.354-0.212,0.675-0.147,1.183c-0.426,1.597-0.632,3.411-0.888,5.177c0,0.05,0,0.099,0,0.148
	c-0.359,1.316-0.558,2.795-0.74,4.289c0,0.05,0,0.099,0,0.147c-0.223,0.418-0.261,1.021-0.295,1.628c0,0.049,0,0.098,0,0.147
	c-0.516,1.975-0.306,3.761-1.628,4.881c-0.268-2.044,0.649-4.183,0.739-6.36c0.204-0.19,0.146-0.643,0.148-1.035
	c0.809-4.023,1.465-8.199,2.07-12.424c0.204-0.19,0.146-0.643,0.148-1.035c0.465-1.951,0.771-4.062,1.035-6.213
	c0.204-0.19,0.146-0.643,0.148-1.035c0.404-1.616,0.701-3.342,0.887-5.177c0-0.049,0-0.099,0-0.147
	c0.377-1.351,0.565-2.887,0.739-4.438c0-0.049,0-0.099,0-0.147c1.492-8.173,2.854-16.473,4.142-24.849
	C237.423,80.872,237.423,80.823,237.423,80.773z"/>
<path fill-rule="evenodd" clip-rule="evenodd" fill="#555555" d="M184.03,94.973c0,2.859,0,5.72,0,8.579
	c0.079,0.572-0.265,0.722-0.148,1.331c-0.434-1.371-1.319-2.287-1.035-3.994c0-0.098,0-0.196,0-0.295
	c0.271-17.503,0.148-36.105,0.148-54.134c0-7.495-0.069-15.526,0-21.891c-0.199-0.821-0.282,0.081-0.444-0.147
	c0.281-1.25-0.648-1.971-0.443-2.663c0.977-0.204,2.024-0.451,3.105-0.148c-1.157,0.709-0.508,2.904-0.739,4.733
	c-0.076,0.605-0.385,1.178-0.443,1.627c-0.661,5.07,0,11.489,0,16.862C184.03,61.253,184.03,78.699,184.03,94.973z"/>
</svg>
